<?xml version="1.0" encoding="UTF-8" standalone="no"?>
<!-- Created with Inkscape (http://www.inkscape.org/) -->

<svg
   xmlns:dc="http://purl.org/dc/elements/1.1/"
   xmlns:cc="http://creativecommons.org/ns#"
   xmlns:rdf="http://www.w3.org/1999/02/22-rdf-syntax-ns#"
   xmlns:svg="http://www.w3.org/2000/svg"
   xmlns="http://www.w3.org/2000/svg"
   xmlns:sodipodi="http://sodipodi.sourceforge.net/DTD/sodipodi-0.dtd"
   xmlns:inkscape="http://www.inkscape.org/namespaces/inkscape"
   id="svg4622"
   version="1.1"
   inkscape:version="0.48.3.1 r9886"
   width="509.10434"
   height="465.35434"
   xml:space="preserve"
   sodipodi:docname="lasered_cardstock_parts.ink.svg"><metadata
     id="metadata4628"><rdf:RDF><cc:Work
         rdf:about=""><dc:format>image/svg+xml</dc:format><dc:type
           rdf:resource="http://purl.org/dc/dcmitype/StillImage" /><dc:title /></cc:Work></rdf:RDF></metadata><defs
     id="defs4626"><clipPath
       clipPathUnits="userSpaceOnUse"
       id="clipPath4636"><path
         d="m 0,1683.78 2383.94,0 L 2383.94,0 0,0 0,1683.78 z"
         id="path4638"
         inkscape:connector-curvature="0" /></clipPath><clipPath
       clipPathUnits="userSpaceOnUse"
       id="clipPath4644"><path
         d="m 57.334,1629.64 784.747,0 0,-622.35 -784.747,0 0,622.35 z"
         id="path4646"
         inkscape:connector-curvature="0" /></clipPath><clipPath
       clipPathUnits="userSpaceOnUse"
       id="clipPath4658"><path
         d="m 859.793,1629.64 609.257,0 0,-622.35 -609.257,0 0,622.35 z"
         id="path4660"
         inkscape:connector-curvature="0" /></clipPath><clipPath
       clipPathUnits="userSpaceOnUse"
       id="clipPath4672"><path
         d="m 1495.79,1629.64 438.05,0 0,-622.35 -438.05,0 0,622.35 z"
         id="path4674"
         inkscape:connector-curvature="0" /></clipPath><clipPath
       clipPathUnits="userSpaceOnUse"
       id="clipPath4690"><path
         d="m 0,1683.78 2383.94,0 L 2383.94,0 0,0 0,1683.78 z"
         id="path4692"
         inkscape:connector-curvature="0" /></clipPath><clipPath
       clipPathUnits="userSpaceOnUse"
       id="clipPath4698"><path
         d="m 1972.4,1629.64 283.46,0 0,-622.35 -283.46,0 0,622.35 z"
         id="path4700"
         inkscape:connector-curvature="0" /></clipPath><clipPath
       clipPathUnits="userSpaceOnUse"
       id="clipPath4720"><path
         d="m 0,1683.78 2383.94,0 L 2383.94,0 0,0 0,1683.78 z"
         id="path4722"
         inkscape:connector-curvature="0" /></clipPath><clipPath
       clipPathUnits="userSpaceOnUse"
       id="clipPath4636-2"><path
         inkscape:connector-curvature="0"
         d="m 0,1683.78 2383.94,0 L 2383.94,0 0,0 0,1683.78 z"
         id="path4638-2" /></clipPath><clipPath
       clipPathUnits="userSpaceOnUse"
       id="clipPath4644-9"><path
         inkscape:connector-curvature="0"
         d="m 57.334,1629.64 784.747,0 0,-622.35 -784.747,0 0,622.35 z"
         id="path4646-3" /></clipPath><clipPath
       clipPathUnits="userSpaceOnUse"
       id="clipPath4658-3"><path
         inkscape:connector-curvature="0"
         d="m 859.793,1629.64 609.257,0 0,-622.35 -609.257,0 0,622.35 z"
         id="path4660-0" /></clipPath><clipPath
       clipPathUnits="userSpaceOnUse"
       id="clipPath4672-4"><path
         inkscape:connector-curvature="0"
         d="m 1495.79,1629.64 438.05,0 0,-622.35 -438.05,0 0,622.35 z"
         id="path4674-5" /></clipPath></defs><sodipodi:namedview
     pagecolor="#ffffff"
     bordercolor="#666666"
     borderopacity="1"
     objecttolerance="10"
     gridtolerance="10"
     guidetolerance="10"
     inkscape:pageopacity="0"
     inkscape:pageshadow="2"
     inkscape:window-width="1024"
     inkscape:window-height="576"
     id="namedview4624"
     showgrid="false"
     inkscape:zoom="0.63429548"
     inkscape:cx="289.59315"
     inkscape:cy="248.58715"
     inkscape:window-x="0"
     inkscape:window-y="24"
     inkscape:window-maximized="1"
     inkscape:current-layer="g4630"
     units="mm"
     inkscape:document-units="mm"
     fit-margin-top="0"
     fit-margin-left="0"
     fit-margin-right="0"
     fit-margin-bottom="0" /><g
     id="g4630"
     inkscape:groupmode="layer"
     inkscape:label="telaio_v7"
     transform="matrix(1.25,0,0,-1.25,-1887.9765,2025.0832)">



<g
   id="g6114"
   transform="translate(1536.2417,1294.981)"
   style="color:#000000;fill:none;stroke:#000000;stroke-width:0.28346458;stroke-linecap:butt;stroke-linejoin:miter;stroke-miterlimit:4;stroke-opacity:1;stroke-dasharray:none;stroke-dashoffset:0;marker:none;visibility:visible;display:inline;overflow:visible;enable-background:accumulate"><path
     d="M 0,0 0,147.653"
     style="color:#000000;fill:none;stroke:#000000;stroke-width:0.28346458;stroke-linecap:butt;stroke-linejoin:miter;stroke-miterlimit:4;stroke-opacity:1;stroke-dasharray:none;stroke-dashoffset:0;marker:none;visibility:visible;display:inline;overflow:visible;enable-background:accumulate"
     id="path6116"
     inkscape:connector-curvature="0" /></g><g
   id="g6118"
   transform="translate(1549.4204,1452.4512)"
   style="color:#000000;fill:none;stroke:#000000;stroke-width:0.28346458;stroke-linecap:butt;stroke-linejoin:miter;stroke-miterlimit:4;stroke-opacity:1;stroke-dasharray:none;stroke-dashoffset:0;marker:none;visibility:visible;display:inline;overflow:visible;enable-background:accumulate"><path
     d="M 0,0 -0.31,1.567 -1.208,2.9 -2.534,3.789 -4.108,4.108 -5.685,3.789 -7.019,2.9 -7.908,1.567 -8.217,0 l 0.309,-1.575 0.889,-1.335 1.334,-0.889 1.577,-0.319 1.574,0.319 1.326,0.889 0.898,1.335 L 0,0 z"
     style="color:#000000;fill:none;stroke:#000000;stroke-width:0.28346458;stroke-linecap:butt;stroke-linejoin:miter;stroke-miterlimit:4;stroke-opacity:1;stroke-dasharray:none;stroke-dashoffset:0;marker:none;visibility:visible;display:inline;overflow:visible;enable-background:accumulate"
     id="path6120"
     inkscape:connector-curvature="0" /></g><g
   id="g6122"
   transform="translate(1541.2036,1305.6113)"
   style="color:#000000;fill:none;stroke:#000000;stroke-width:0.28346458;stroke-linecap:butt;stroke-linejoin:miter;stroke-miterlimit:4;stroke-opacity:1;stroke-dasharray:none;stroke-dashoffset:0;marker:none;visibility:visible;display:inline;overflow:visible;enable-background:accumulate"><path
     d="m 0,0 0.309,-1.574 0.889,-1.335 1.334,-0.89 1.576,-0.309 1.575,0.309 1.326,0.89 0.898,1.335 L 8.217,0 7.907,1.577 7.009,2.91 5.683,3.799 4.108,4.108 2.532,3.799 1.198,2.91 0.309,1.577 0,0 z"
     style="color:#000000;fill:none;stroke:#000000;stroke-width:0.28346458;stroke-linecap:butt;stroke-linejoin:miter;stroke-miterlimit:4;stroke-opacity:1;stroke-dasharray:none;stroke-dashoffset:0;marker:none;visibility:visible;display:inline;overflow:visible;enable-background:accumulate"
     id="path6124"
     inkscape:connector-curvature="0" /></g><g
   id="g6126"
   transform="translate(1536.2417,1292.9966)"
   style="color:#000000;fill:none;stroke:#000000;stroke-width:0.28346458;stroke-linecap:butt;stroke-linejoin:miter;stroke-miterlimit:4;stroke-opacity:1;stroke-dasharray:none;stroke-dashoffset:0;marker:none;visibility:visible;display:inline;overflow:visible;enable-background:accumulate"><path
     d="m 0,0 0,-25.424 13.767,0 1.11,0.109 1.06,0.32 0.98,0.52 0.86,0.711 0.71,0.859 0.52,0.981 0.32,1.058 0.11,1.112 0,188.279 -10.937,0 -1.66,-0.17 -1.59,-0.48 -1.471,-0.79 -1.289,-1.05 -1.06,-1.289 -0.79,-1.471 -0.48,-1.6 -0.16,-1.66 0,-8.393"
     style="color:#000000;fill:none;stroke:#000000;stroke-width:0.28346458;stroke-linecap:butt;stroke-linejoin:miter;stroke-miterlimit:4;stroke-opacity:1;stroke-dasharray:none;stroke-dashoffset:0;marker:none;visibility:visible;display:inline;overflow:visible;enable-background:accumulate"
     id="path6128"
     inkscape:connector-curvature="0" /></g><g
   id="g6130"
   transform="translate(1581.2651,1276.6416)"
   style="color:#000000;fill:none;stroke:#000000;stroke-width:0.28346458;stroke-linecap:butt;stroke-linejoin:miter;stroke-miterlimit:4;stroke-opacity:1;stroke-dasharray:none;stroke-dashoffset:0;marker:none;visibility:visible;display:inline;overflow:visible;enable-background:accumulate"><path
     d="m 0,0 0.31,-1.575 0.889,-1.334 1.334,-0.89 1.575,-0.309 1.577,0.309 1.333,0.89 0.889,1.334 L 8.217,0 7.907,1.577 7.018,2.91 5.685,3.799 4.108,4.108 2.533,3.799 1.199,2.91 0.31,1.577 0,0 z"
     style="color:#000000;fill:none;stroke:#000000;stroke-width:0.28346458;stroke-linecap:butt;stroke-linejoin:miter;stroke-miterlimit:4;stroke-opacity:1;stroke-dasharray:none;stroke-dashoffset:0;marker:none;visibility:visible;display:inline;overflow:visible;enable-background:accumulate"
     id="path6132"
     inkscape:connector-curvature="0" /></g><g
   id="g6134"
   transform="translate(1567.7935,1275.5737)"
   style="color:#000000;fill:none;stroke:#000000;stroke-width:0.28346458;stroke-linecap:butt;stroke-linejoin:miter;stroke-miterlimit:4;stroke-opacity:1;stroke-dasharray:none;stroke-dashoffset:0;marker:none;visibility:visible;display:inline;overflow:visible;enable-background:accumulate"><path
     d="m 0,0 0,-2.331 0.11,-1.111 0.33,-1.06 0.521,-0.979 0.699,-0.861 0.861,-0.7 0.979,-0.529 1.07,-0.32 1.1,-0.111 21.548,0 0,188.281 -0.11,1.099 -0.33,1.071 -0.52,0.98 -0.7,0.86 -0.86,0.699 -0.98,0.531 -1.071,0.32 -1.099,0.11 -13.038,0 0,-10.385"
     style="color:#000000;fill:none;stroke:#000000;stroke-width:0.28346458;stroke-linecap:butt;stroke-linejoin:miter;stroke-miterlimit:4;stroke-opacity:1;stroke-dasharray:none;stroke-dashoffset:0;marker:none;visibility:visible;display:inline;overflow:visible;enable-background:accumulate"
     id="path6136"
     inkscape:connector-curvature="0" /></g><g
   id="g6138"
   transform="translate(1589.4819,1423.4814)"
   style="color:#000000;fill:none;stroke:#000000;stroke-width:0.28346458;stroke-linecap:butt;stroke-linejoin:miter;stroke-miterlimit:4;stroke-opacity:1;stroke-dasharray:none;stroke-dashoffset:0;marker:none;visibility:visible;display:inline;overflow:visible;enable-background:accumulate"><path
     d="M 0,0 -0.31,1.567 -1.199,2.9 -2.532,3.789 -4.108,4.108 -5.684,3.789 -7.018,2.9 -7.907,1.567 -8.217,0 l 0.31,-1.574 0.889,-1.335 1.334,-0.89 1.576,-0.318 1.576,0.318 1.333,0.89 0.889,1.335 L 0,0 z"
     style="color:#000000;fill:none;stroke:#000000;stroke-width:0.28346458;stroke-linecap:butt;stroke-linejoin:miter;stroke-miterlimit:4;stroke-opacity:1;stroke-dasharray:none;stroke-dashoffset:0;marker:none;visibility:visible;display:inline;overflow:visible;enable-background:accumulate"
     id="path6140"
     inkscape:connector-curvature="0" /></g><g
   id="g6142"
   transform="translate(1567.7935,1277.5581)"
   style="color:#000000;fill:none;stroke:#000000;stroke-width:0.28346458;stroke-linecap:butt;stroke-linejoin:miter;stroke-miterlimit:4;stroke-opacity:1;stroke-dasharray:none;stroke-dashoffset:0;marker:none;visibility:visible;display:inline;overflow:visible;enable-background:accumulate"><path
     d="m 0,0 0,7.025 7.94,0 0,76.529 -7.94,0 0,6.619 0.021,0.452 0.059,0.458 0.09,0.442 0.12,0.439 0.17,0.43 0.19,0.41 0.231,0.391 0.26,0.379 6.23,8.31 0.26,0.379 0.229,0.391 0.201,0.42 0.16,0.42 0.119,0.441 0.091,0.449 0.059,0.449 0.02,0.461 0,66.302"
     style="color:#000000;fill:none;stroke:#000000;stroke-width:0.28346458;stroke-linecap:butt;stroke-linejoin:miter;stroke-miterlimit:4;stroke-opacity:1;stroke-dasharray:none;stroke-dashoffset:0;marker:none;visibility:visible;display:inline;overflow:visible;enable-background:accumulate"
     id="path6144"
     inkscape:connector-curvature="0" /></g><g
   id="g6146"
   transform="translate(1645.8579,1452.8228)"
   style="color:#000000;fill:none;stroke:#000000;stroke-width:0.28346458;stroke-linecap:butt;stroke-linejoin:miter;stroke-miterlimit:4;stroke-opacity:1;stroke-dasharray:none;stroke-dashoffset:0;marker:none;visibility:visible;display:inline;overflow:visible;enable-background:accumulate"><path
     d="M 0,0 147.653,0"
     style="color:#000000;fill:none;stroke:#000000;stroke-width:0.28346458;stroke-linecap:butt;stroke-linejoin:miter;stroke-miterlimit:4;stroke-opacity:1;stroke-dasharray:none;stroke-dashoffset:0;marker:none;visibility:visible;display:inline;overflow:visible;enable-background:accumulate"
     id="path6148"
     inkscape:connector-curvature="0" /></g><g
   id="g6150"
   transform="translate(1803.3276,1439.644)"
   style="color:#000000;fill:none;stroke:#000000;stroke-width:0.28346458;stroke-linecap:butt;stroke-linejoin:miter;stroke-miterlimit:4;stroke-opacity:1;stroke-dasharray:none;stroke-dashoffset:0;marker:none;visibility:visible;display:inline;overflow:visible;enable-background:accumulate"><path
     d="M 0,0 1.567,0.31 2.9,1.208 3.789,2.534 4.108,4.108 3.789,5.685 2.9,7.019 1.567,7.908 0,8.217 -1.574,7.908 -2.909,7.019 -3.799,5.685 -4.117,4.108 -3.799,2.534 -2.909,1.208 -1.574,0.31 0,0 z"
     style="color:#000000;fill:none;stroke:#000000;stroke-width:0.28346458;stroke-linecap:butt;stroke-linejoin:miter;stroke-miterlimit:4;stroke-opacity:1;stroke-dasharray:none;stroke-dashoffset:0;marker:none;visibility:visible;display:inline;overflow:visible;enable-background:accumulate"
     id="path6152"
     inkscape:connector-curvature="0" /></g><g
   id="g6154"
   transform="translate(1656.4878,1447.8608)"
   style="color:#000000;fill:none;stroke:#000000;stroke-width:0.28346458;stroke-linecap:butt;stroke-linejoin:miter;stroke-miterlimit:4;stroke-opacity:1;stroke-dasharray:none;stroke-dashoffset:0;marker:none;visibility:visible;display:inline;overflow:visible;enable-background:accumulate"><path
     d="m 0,0 -1.574,-0.309 -1.334,-0.889 -0.891,-1.334 -0.308,-1.576 0.308,-1.575 0.891,-1.326 1.334,-0.898 1.574,-0.31 1.578,0.31 1.332,0.898 0.889,1.326 0.31,1.575 -0.31,1.576 L 2.91,-1.198 1.578,-0.309 0,0 z"
     style="color:#000000;fill:none;stroke:#000000;stroke-width:0.28346458;stroke-linecap:butt;stroke-linejoin:miter;stroke-miterlimit:4;stroke-opacity:1;stroke-dasharray:none;stroke-dashoffset:0;marker:none;visibility:visible;display:inline;overflow:visible;enable-background:accumulate"
     id="path6156"
     inkscape:connector-curvature="0" /></g><g
   id="g6158"
   transform="translate(1643.8735,1452.8228)"
   style="color:#000000;fill:none;stroke:#000000;stroke-width:0.28346458;stroke-linecap:butt;stroke-linejoin:miter;stroke-miterlimit:4;stroke-opacity:1;stroke-dasharray:none;stroke-dashoffset:0;marker:none;visibility:visible;display:inline;overflow:visible;enable-background:accumulate"><path
     d="m 0,0 -25.425,0 0,-13.767 0.11,-1.11 0.32,-1.06 0.519,-0.98 0.711,-0.86 0.86,-0.71 0.98,-0.52 1.059,-0.32 1.111,-0.11 188.279,0 0,10.937 -0.17,1.66 -0.48,1.59 -0.789,1.471 -1.051,1.289 -1.289,1.06 -1.471,0.79 -1.599,0.48 -1.66,0.16 -8.393,0"
     style="color:#000000;fill:none;stroke:#000000;stroke-width:0.28346458;stroke-linecap:butt;stroke-linejoin:miter;stroke-miterlimit:4;stroke-opacity:1;stroke-dasharray:none;stroke-dashoffset:0;marker:none;visibility:visible;display:inline;overflow:visible;enable-background:accumulate"
     id="path6160"
     inkscape:connector-curvature="0" /></g><g
   id="g6162"
   transform="translate(1627.519,1407.7993)"
   style="color:#000000;fill:none;stroke:#000000;stroke-width:0.28346458;stroke-linecap:butt;stroke-linejoin:miter;stroke-miterlimit:4;stroke-opacity:1;stroke-dasharray:none;stroke-dashoffset:0;marker:none;visibility:visible;display:inline;overflow:visible;enable-background:accumulate"><path
     d="m 0,0 -1.575,-0.31 -1.335,-0.889 -0.889,-1.334 -0.31,-1.575 0.31,-1.577 0.889,-1.333 1.335,-0.889 1.575,-0.31 1.576,0.31 1.333,0.889 0.89,1.333 0.308,1.577 -0.308,1.575 -0.89,1.334 L 1.576,-0.31 0,0 z"
     style="color:#000000;fill:none;stroke:#000000;stroke-width:0.28346458;stroke-linecap:butt;stroke-linejoin:miter;stroke-miterlimit:4;stroke-opacity:1;stroke-dasharray:none;stroke-dashoffset:0;marker:none;visibility:visible;display:inline;overflow:visible;enable-background:accumulate"
     id="path6164"
     inkscape:connector-curvature="0" /></g><g
   id="g6166"
   transform="translate(1626.4507,1421.271)"
   style="color:#000000;fill:none;stroke:#000000;stroke-width:0.28346458;stroke-linecap:butt;stroke-linejoin:miter;stroke-miterlimit:4;stroke-opacity:1;stroke-dasharray:none;stroke-dashoffset:0;marker:none;visibility:visible;display:inline;overflow:visible;enable-background:accumulate"><path
     d="M 0,0 -2.33,0 -3.441,-0.11 -4.502,-0.44 -5.48,-0.961 -6.342,-1.66 -7.041,-2.521 -7.57,-3.5 l -0.321,-1.07 -0.111,-1.1 0,-21.548 188.281,0 1.1,0.11 1.07,0.33 0.981,0.52 0.859,0.7 0.699,0.86 0.532,0.98 0.32,1.071 0.109,1.099 0,13.038 -10.385,0"
     style="color:#000000;fill:none;stroke:#000000;stroke-width:0.28346458;stroke-linecap:butt;stroke-linejoin:miter;stroke-miterlimit:4;stroke-opacity:1;stroke-dasharray:none;stroke-dashoffset:0;marker:none;visibility:visible;display:inline;overflow:visible;enable-background:accumulate"
     id="path6168"
     inkscape:connector-curvature="0" /></g><g
   id="g6170"
   transform="translate(1774.3589,1399.5825)"
   style="color:#000000;fill:none;stroke:#000000;stroke-width:0.28346458;stroke-linecap:butt;stroke-linejoin:miter;stroke-miterlimit:4;stroke-opacity:1;stroke-dasharray:none;stroke-dashoffset:0;marker:none;visibility:visible;display:inline;overflow:visible;enable-background:accumulate"><path
     d="M 0,0 1.566,0.31 2.9,1.199 3.789,2.532 4.107,4.108 3.789,5.684 2.9,7.018 1.566,7.907 0,8.217 -1.574,7.907 -2.91,7.018 -3.799,5.684 -4.117,4.108 -3.799,2.532 -2.91,1.199 -1.574,0.31 0,0 z"
     style="color:#000000;fill:none;stroke:#000000;stroke-width:0.28346458;stroke-linecap:butt;stroke-linejoin:miter;stroke-miterlimit:4;stroke-opacity:1;stroke-dasharray:none;stroke-dashoffset:0;marker:none;visibility:visible;display:inline;overflow:visible;enable-background:accumulate"
     id="path6172"
     inkscape:connector-curvature="0" /></g><g
   id="g6174"
   transform="translate(1628.4351,1421.271)"
   style="color:#000000;fill:none;stroke:#000000;stroke-width:0.28346458;stroke-linecap:butt;stroke-linejoin:miter;stroke-miterlimit:4;stroke-opacity:1;stroke-dasharray:none;stroke-dashoffset:0;marker:none;visibility:visible;display:inline;overflow:visible;enable-background:accumulate"><path
     d="m 0,0 7.025,0 0,-7.94 76.53,0 0,7.94 6.619,0 0.451,-0.021 0.459,-0.059 0.441,-0.09 0.44,-0.12 0.43,-0.17 0.41,-0.19 0.39,-0.231 0.379,-0.26 8.311,-6.23 0.379,-0.26 0.39,-0.229 0.42,-0.201 0.42,-0.16 0.442,-0.119 0.449,-0.091 0.449,-0.059 0.461,-0.02 66.301,0"
     style="color:#000000;fill:none;stroke:#000000;stroke-width:0.28346458;stroke-linecap:butt;stroke-linejoin:miter;stroke-miterlimit:4;stroke-opacity:1;stroke-dasharray:none;stroke-dashoffset:0;marker:none;visibility:visible;display:inline;overflow:visible;enable-background:accumulate"
     id="path6176"
     inkscape:connector-curvature="0" /></g><g
   id="g6178"
   transform="translate(1585.2241,1573.4448)"
   style="color:#000000;fill:none;stroke:#000000;stroke-width:0.28346458;stroke-linecap:butt;stroke-linejoin:miter;stroke-miterlimit:4;stroke-opacity:1;stroke-dasharray:none;stroke-dashoffset:0;marker:none;visibility:visible;display:inline;overflow:visible;enable-background:accumulate"><path
     d="M 0,0 1.575,0.31 2.909,1.199 3.8,2.531 4.108,4.108 3.8,5.674 2.909,7.008 1.575,7.907 0,8.217 -1.566,7.907 -2.9,7.008 -3.8,5.674 -4.108,4.108 -3.8,2.531 -2.9,1.199 -1.566,0.31 0,0 z"
     style="color:#000000;fill:none;stroke:#000000;stroke-width:0.28346458;stroke-linecap:butt;stroke-linejoin:miter;stroke-miterlimit:4;stroke-opacity:1;stroke-dasharray:none;stroke-dashoffset:0;marker:none;visibility:visible;display:inline;overflow:visible;enable-background:accumulate"
     id="path6180"
     inkscape:connector-curvature="0" /></g><g
   id="g6182"
   transform="translate(1576.0132,1529.3198)"
   style="color:#000000;fill:none;stroke:#000000;stroke-width:0.28346458;stroke-linecap:butt;stroke-linejoin:miter;stroke-miterlimit:4;stroke-opacity:1;stroke-dasharray:none;stroke-dashoffset:0;marker:none;visibility:visible;display:inline;overflow:visible;enable-background:accumulate"><path
     d="m 0,0 0,-28.308 0.22,-2.468 0.639,-2.401 1.061,-2.25 1.43,-2.031 1.76,-1.75 2.041,-1.408 2.26,-1.041 2.401,-0.619 1.796,-0.08 1.21,0.199 1.151,0.449 1.019,0.691 0.84,0.889 0.641,1.051 0.389,1.16 0.14,1.23 0,107.589 -4.827,0 -2.76,-0.269 L 8.751,69.832 6.301,68.521 4.15,66.753 2.391,64.612 1.08,62.153 0.27,59.503 0,56.733 0,30.329"
     style="color:#000000;fill:none;stroke:#000000;stroke-width:0.28346458;stroke-linecap:butt;stroke-linejoin:miter;stroke-miterlimit:4;stroke-opacity:1;stroke-dasharray:none;stroke-dashoffset:0;marker:none;visibility:visible;display:inline;overflow:visible;enable-background:accumulate"
     id="path6184"
     inkscape:connector-curvature="0" /></g><g
   id="g6186"
   transform="translate(1585.2241,1513.6294)"
   style="color:#000000;fill:none;stroke:#000000;stroke-width:0.28346458;stroke-linecap:butt;stroke-linejoin:miter;stroke-miterlimit:4;stroke-opacity:1;stroke-dasharray:none;stroke-dashoffset:0;marker:none;visibility:visible;display:inline;overflow:visible;enable-background:accumulate"><path
     d="M 0,0 -1.566,-0.318 -2.9,-1.208 -3.8,-2.541 -4.108,-4.107 -3.8,-5.683 -2.9,-7.018 -1.566,-7.906 0,-8.226 1.575,-7.906 2.909,-7.018 3.8,-5.683 4.108,-4.107 3.8,-2.541 2.909,-1.208 1.575,-0.318 0,0 z"
     style="color:#000000;fill:none;stroke:#000000;stroke-width:0.28346458;stroke-linecap:butt;stroke-linejoin:miter;stroke-miterlimit:4;stroke-opacity:1;stroke-dasharray:none;stroke-dashoffset:0;marker:none;visibility:visible;display:inline;overflow:visible;enable-background:accumulate"
     id="path6188"
     inkscape:connector-curvature="0" /></g><g
   id="g6190"
   transform="translate(1576.0132,1532.1548)"
   style="color:#000000;fill:none;stroke:#000000;stroke-width:0.28346458;stroke-linecap:butt;stroke-linejoin:miter;stroke-miterlimit:4;stroke-opacity:1;stroke-dasharray:none;stroke-dashoffset:0;marker:none;visibility:visible;display:inline;overflow:visible;enable-background:accumulate"><path
     d="M 0,0 0,24.659"
     style="color:#000000;fill:none;stroke:#000000;stroke-width:0.28346458;stroke-linecap:butt;stroke-linejoin:miter;stroke-miterlimit:4;stroke-opacity:1;stroke-dasharray:none;stroke-dashoffset:0;marker:none;visibility:visible;display:inline;overflow:visible;enable-background:accumulate"
     id="path6192"
     inkscape:connector-curvature="0" /></g><g
   id="g6194"
   transform="translate(1536.6792,1528.4282)"
   style="color:#000000;fill:none;stroke:#000000;stroke-width:0.28346458;stroke-linecap:butt;stroke-linejoin:miter;stroke-miterlimit:4;stroke-opacity:1;stroke-dasharray:none;stroke-dashoffset:0;marker:none;visibility:visible;display:inline;overflow:visible;enable-background:accumulate"><path
     d="m 0,0 0,-27.295 0.27,-2.771 0.81,-2.649 1.311,-2.461 1.759,-2.14 2.151,-1.77 2.449,-1.309 2.66,-0.8 2.771,-0.269 4.818,0 -10e-4,107.588 -0.139,1.23 -0.39,1.159 -0.641,1.05 -0.84,0.891 -1.019,0.69 -1.151,0.449 -1.21,0.201 -1.798,-0.08 -2.399,-0.621 -2.26,-1.039 -2.04,-1.41 -1.76,-1.75 -1.43,-2.03 -1.05,-2.25 -0.65,-2.4 -0.22,-2.471 0,-27.415"
     style="color:#000000;fill:none;stroke:#000000;stroke-width:0.28346458;stroke-linecap:butt;stroke-linejoin:miter;stroke-miterlimit:4;stroke-opacity:1;stroke-dasharray:none;stroke-dashoffset:0;marker:none;visibility:visible;display:inline;overflow:visible;enable-background:accumulate"
     id="path6196"
     inkscape:connector-curvature="0" /></g><g
   id="g6198"
   transform="translate(1545.8901,1573.5532)"
   style="color:#000000;fill:none;stroke:#000000;stroke-width:0.28346458;stroke-linecap:butt;stroke-linejoin:miter;stroke-miterlimit:4;stroke-opacity:1;stroke-dasharray:none;stroke-dashoffset:0;marker:none;visibility:visible;display:inline;overflow:visible;enable-background:accumulate"><path
     d="M 0,0 1.575,0.318 2.909,1.207 3.798,2.543 4.118,4.107 3.798,5.684 2.909,7.018 1.575,7.906 0,8.226 -1.565,7.906 -2.899,7.018 -3.789,5.684 -4.108,4.107 -3.789,2.543 -2.899,1.207 -1.565,0.318 0,0 z"
     style="color:#000000;fill:none;stroke:#000000;stroke-width:0.28346458;stroke-linecap:butt;stroke-linejoin:miter;stroke-miterlimit:4;stroke-opacity:1;stroke-dasharray:none;stroke-dashoffset:0;marker:none;visibility:visible;display:inline;overflow:visible;enable-background:accumulate"
     id="path6200"
     inkscape:connector-curvature="0" /></g><g
   id="g6202"
   transform="translate(1536.6792,1531.2622)"
   style="color:#000000;fill:none;stroke:#000000;stroke-width:0.28346458;stroke-linecap:butt;stroke-linejoin:miter;stroke-miterlimit:4;stroke-opacity:1;stroke-dasharray:none;stroke-dashoffset:0;marker:none;visibility:visible;display:inline;overflow:visible;enable-background:accumulate"><path
     d="M 0,0 0.001,24.66"
     style="color:#000000;fill:none;stroke:#000000;stroke-width:0.28346458;stroke-linecap:butt;stroke-linejoin:miter;stroke-miterlimit:4;stroke-opacity:1;stroke-dasharray:none;stroke-dashoffset:0;marker:none;visibility:visible;display:inline;overflow:visible;enable-background:accumulate"
     id="path6204"
     inkscape:connector-curvature="0" /></g><g
   id="g6206"
   transform="translate(1545.8901,1513.7397)"
   style="color:#000000;fill:none;stroke:#000000;stroke-width:0.28346458;stroke-linecap:butt;stroke-linejoin:miter;stroke-miterlimit:4;stroke-opacity:1;stroke-dasharray:none;stroke-dashoffset:0;marker:none;visibility:visible;display:inline;overflow:visible;enable-background:accumulate"><path
     d="m 0,0 -1.566,-0.309 -1.334,-0.89 -0.889,-1.334 -0.32,-1.574 0.32,-1.569 0.889,-1.332 1.334,-0.898 1.566,-0.311 1.574,0.311 1.334,0.898 0.891,1.332 0.318,1.569 -0.318,1.574 -0.891,1.334 -1.334,0.89 L 0,0 z"
     style="color:#000000;fill:none;stroke:#000000;stroke-width:0.28346458;stroke-linecap:butt;stroke-linejoin:miter;stroke-miterlimit:4;stroke-opacity:1;stroke-dasharray:none;stroke-dashoffset:0;marker:none;visibility:visible;display:inline;overflow:visible;enable-background:accumulate"
     id="path6208"
     inkscape:connector-curvature="0" /></g><g
   id="g6210"
   transform="translate(1789.7202,1291.9834)"
   style="color:#000000;fill:none;stroke:#000000;stroke-width:0.28346458;stroke-linecap:butt;stroke-linejoin:miter;stroke-miterlimit:4;stroke-opacity:1;stroke-dasharray:none;stroke-dashoffset:0;marker:none;visibility:visible;display:inline;overflow:visible;enable-background:accumulate"><path
     d="M 0,0 1.576,0.31 2.91,1.199 3.799,2.532 4.107,4.108 3.799,5.684 2.91,7.018 1.576,7.907 0,8.217 -1.576,7.907 -2.91,7.018 -3.801,5.684 -4.109,4.108 -3.801,2.532 -2.91,1.199 -1.576,0.31 0,0 z"
     style="color:#000000;fill:none;stroke:#000000;stroke-width:0.28346458;stroke-linecap:butt;stroke-linejoin:miter;stroke-miterlimit:4;stroke-opacity:1;stroke-dasharray:none;stroke-dashoffset:0;marker:none;visibility:visible;display:inline;overflow:visible;enable-background:accumulate"
     id="path6212"
     inkscape:connector-curvature="0" /></g><g
   id="g6214"
   transform="translate(1727.3608,1300.2002)"
   style="color:#000000;fill:none;stroke:#000000;stroke-width:0.28346458;stroke-linecap:butt;stroke-linejoin:miter;stroke-miterlimit:4;stroke-opacity:1;stroke-dasharray:none;stroke-dashoffset:0;marker:none;visibility:visible;display:inline;overflow:visible;enable-background:accumulate"><path
     d="m 0,0 -1.576,-0.31 -1.334,-0.889 -0.889,-1.334 -0.31,-1.575 0.31,-1.577 0.889,-1.333 1.334,-0.889 1.576,-0.31 1.564,0.31 1.334,0.889 0.901,1.333 0.308,1.577 L 3.799,-2.533 2.898,-1.199 1.564,-0.31 0,0 z"
     style="color:#000000;fill:none;stroke:#000000;stroke-width:0.28346458;stroke-linecap:butt;stroke-linejoin:miter;stroke-miterlimit:4;stroke-opacity:1;stroke-dasharray:none;stroke-dashoffset:0;marker:none;visibility:visible;display:inline;overflow:visible;enable-background:accumulate"
     id="path6216"
     inkscape:connector-curvature="0" /></g><g
   id="g6218"
   transform="translate(1667.7632,1291.8418)"
   style="color:#000000;fill:none;stroke:#000000;stroke-width:0.28346458;stroke-linecap:butt;stroke-linejoin:miter;stroke-miterlimit:4;stroke-opacity:1;stroke-dasharray:none;stroke-dashoffset:0;marker:none;visibility:visible;display:inline;overflow:visible;enable-background:accumulate"><path
     d="m 0,0 -28.283,0 -2.76,-0.28 -2.66,-0.8 -2.451,-1.311 -2.151,-1.759 -1.759,-2.151 -1.309,-2.449 -0.811,-2.66 -0.269,-2.77 0,-7.897 266.459,0 0,7.897 -0.279,2.77 -0.801,2.66 -1.311,2.449 -1.76,2.151 -2.148,1.759 -2.451,1.311 -2.66,0.8 -2.77,0.28 -32.488,0"
     style="color:#000000;fill:none;stroke:#000000;stroke-width:0.28346458;stroke-linecap:butt;stroke-linejoin:miter;stroke-miterlimit:4;stroke-opacity:1;stroke-dasharray:none;stroke-dashoffset:0;marker:none;visibility:visible;display:inline;overflow:visible;enable-background:accumulate"
     id="path6220"
     inkscape:connector-curvature="0" /></g><g
   id="g6222"
   transform="translate(1670.5972,1291.8418)"
   style="color:#000000;fill:none;stroke:#000000;stroke-width:0.28346458;stroke-linecap:butt;stroke-linejoin:miter;stroke-miterlimit:4;stroke-opacity:1;stroke-dasharray:none;stroke-dashoffset:0;marker:none;visibility:visible;display:inline;overflow:visible;enable-background:accumulate"><path
     d="m 0,0 41.172,0 0,9.92 0.109,1.1 0.321,1.07 0.521,0.98 0.709,0.86 0.859,0.7 0.981,0.53 1.06,0.32 1.11,0.11 82.201,0 1.109,-0.11 1.061,-0.32 0.978,-0.53 0.862,-0.7 0.699,-0.86 0.529,-0.98 0.321,-1.07 0.111,-1.1 0,-9.92 36.955,0"
     style="color:#000000;fill:none;stroke:#000000;stroke-width:0.28346458;stroke-linecap:butt;stroke-linejoin:miter;stroke-miterlimit:4;stroke-opacity:1;stroke-dasharray:none;stroke-dashoffset:0;marker:none;visibility:visible;display:inline;overflow:visible;enable-background:accumulate"
     id="path6224"
     inkscape:connector-curvature="0" /></g><path
   d="m 1775.548,1300.342 -34.018,0 0,-8.5 34.018,0 0,8.5 z"
   style="color:#000000;fill:none;stroke:#000000;stroke-width:0.28346458;stroke-linecap:butt;stroke-linejoin:miter;stroke-miterlimit:4;stroke-opacity:1;stroke-dasharray:none;stroke-dashoffset:0;marker:none;visibility:visible;display:inline;overflow:visible;enable-background:accumulate"
   id="path6226"
   inkscape:connector-curvature="0" /><g
   id="g6228"
   transform="translate(1727.3608,1355.0146)"
   style="color:#000000;fill:none;stroke:#000000;stroke-width:0.28346458;stroke-linecap:butt;stroke-linejoin:miter;stroke-miterlimit:4;stroke-opacity:1;stroke-dasharray:none;stroke-dashoffset:0;marker:none;visibility:visible;display:inline;overflow:visible;enable-background:accumulate"><path
     d="m 0,0 -1.576,-0.31 -1.334,-0.889 -0.889,-1.334 -0.31,-1.575 0.31,-1.577 0.889,-1.333 1.334,-0.889 1.576,-0.31 1.564,0.31 1.334,0.889 0.901,1.333 0.308,1.577 L 3.799,-2.533 2.898,-1.199 1.564,-0.31 0,0 z"
     style="color:#000000;fill:none;stroke:#000000;stroke-width:0.28346458;stroke-linecap:butt;stroke-linejoin:miter;stroke-miterlimit:4;stroke-opacity:1;stroke-dasharray:none;stroke-dashoffset:0;marker:none;visibility:visible;display:inline;overflow:visible;enable-background:accumulate"
     id="path6230"
     inkscape:connector-curvature="0" /></g><path
   d="m 1775.548,1355.156 -34.018,0 0,-8.5 34.018,0 0,8.5 z"
   style="color:#000000;fill:none;stroke:#000000;stroke-width:0.28346458;stroke-linecap:butt;stroke-linejoin:miter;stroke-miterlimit:4;stroke-opacity:1;stroke-dasharray:none;stroke-dashoffset:0;marker:none;visibility:visible;display:inline;overflow:visible;enable-background:accumulate"
   id="path6232"
   inkscape:connector-curvature="0" /><g
   id="g6234"
   transform="translate(1667.7632,1346.6563)"
   style="color:#000000;fill:none;stroke:#000000;stroke-width:0.28346458;stroke-linecap:butt;stroke-linejoin:miter;stroke-miterlimit:4;stroke-opacity:1;stroke-dasharray:none;stroke-dashoffset:0;marker:none;visibility:visible;display:inline;overflow:visible;enable-background:accumulate"><path
     d="m 0,0 -28.283,0 -2.76,-0.28 -2.66,-0.8 -2.451,-1.311 -2.151,-1.759 -1.759,-2.151 -1.309,-2.449 -0.811,-2.66 -0.269,-2.77 0,-7.897 266.459,0 0,7.897 -0.279,2.77 -0.801,2.66 -1.311,2.449 -1.76,2.151 -2.148,1.759 -2.451,1.311 -2.66,0.8 -2.77,0.28 -32.488,0"
     style="color:#000000;fill:none;stroke:#000000;stroke-width:0.28346458;stroke-linecap:butt;stroke-linejoin:miter;stroke-miterlimit:4;stroke-opacity:1;stroke-dasharray:none;stroke-dashoffset:0;marker:none;visibility:visible;display:inline;overflow:visible;enable-background:accumulate"
     id="path6236"
     inkscape:connector-curvature="0" /></g><g
   id="g6238"
   transform="translate(1789.7202,1346.7979)"
   style="color:#000000;fill:none;stroke:#000000;stroke-width:0.28346458;stroke-linecap:butt;stroke-linejoin:miter;stroke-miterlimit:4;stroke-opacity:1;stroke-dasharray:none;stroke-dashoffset:0;marker:none;visibility:visible;display:inline;overflow:visible;enable-background:accumulate"><path
     d="M 0,0 1.576,0.31 2.91,1.199 3.799,2.532 4.107,4.108 3.799,5.684 2.91,7.018 1.576,7.907 0,8.217 -1.576,7.907 -2.91,7.018 -3.801,5.684 -4.109,4.108 -3.801,2.532 -2.91,1.199 -1.576,0.31 0,0 z"
     style="color:#000000;fill:none;stroke:#000000;stroke-width:0.28346458;stroke-linecap:butt;stroke-linejoin:miter;stroke-miterlimit:4;stroke-opacity:1;stroke-dasharray:none;stroke-dashoffset:0;marker:none;visibility:visible;display:inline;overflow:visible;enable-background:accumulate"
     id="path6240"
     inkscape:connector-curvature="0" /></g><g
   id="g6242"
   transform="translate(1670.5972,1346.6563)"
   style="color:#000000;fill:none;stroke:#000000;stroke-width:0.28346458;stroke-linecap:butt;stroke-linejoin:miter;stroke-miterlimit:4;stroke-opacity:1;stroke-dasharray:none;stroke-dashoffset:0;marker:none;visibility:visible;display:inline;overflow:visible;enable-background:accumulate"><path
     d="m 0,0 41.172,0 0,9.92 0.109,1.1 0.321,1.07 0.521,0.98 0.709,0.86 0.859,0.7 0.981,0.53 1.06,0.32 1.11,0.11 82.201,0 1.109,-0.11 1.061,-0.32 0.978,-0.53 0.862,-0.7 0.699,-0.86 0.529,-0.98 0.321,-1.07 0.111,-1.1 0,-9.92 36.955,0"
     style="color:#000000;fill:none;stroke:#000000;stroke-width:0.28346458;stroke-linecap:butt;stroke-linejoin:miter;stroke-miterlimit:4;stroke-opacity:1;stroke-dasharray:none;stroke-dashoffset:0;marker:none;visibility:visible;display:inline;overflow:visible;enable-background:accumulate"
     id="path6244"
     inkscape:connector-curvature="0" /></g><g
   id="g6246"
   transform="translate(1618.7378,1558.7573)"
   style="color:#000000;fill:none;stroke:#000000;stroke-width:0.28346458;stroke-linecap:butt;stroke-linejoin:miter;stroke-miterlimit:4;stroke-opacity:1;stroke-dasharray:none;stroke-dashoffset:0;marker:none;visibility:visible;display:inline;overflow:visible;enable-background:accumulate"><path
     d="m 0,0 0,35.795 0.109,1.109 0.321,1.061 0.529,0.98 0.699,0.86 0.862,0.699 0.98,0.531 1.068,0.319 1.102,0.111 105.291,0 0.551,-0.061 0.529,-0.16 0.49,-0.26 0.43,-0.349 0.35,-0.43 0.269,-0.49 0.16,-0.531 0.051,-0.559 0,-6.051 -0.051,-0.529 -0.148,-0.52 -0.25,-0.48 -0.33,-0.42 -0.41,-0.35 -0.461,-0.271 -0.51,-0.18 -0.529,-0.08 -7.721,-0.92 -7.51,-1.99 -7.16,-3.02 -6.66,-4 -6.039,-4.88 -5.301,-5.69 -4.449,-6.369 -3.522,-6.92 -2.51,-7.361 -1.459,-7.629 -0.38,-7.76 0.711,-7.74 1.789,-7.561 2.82,-7.24 3.81,-6.769 4.719,-6.17 5.541,-5.45 6.25,-4.621 0.67,-0.609 0.459,-0.791 0.182,-0.889 -0.121,-0.9 -0.391,-0.82 -0.629,-0.651 -0.801,-0.42 -0.9,-0.15 -76.83,0 -1.102,0.111 -1.068,0.319 -0.98,0.531 -0.862,0.699 -0.699,0.861 -0.529,0.979 -0.321,1.06 -0.109,1.11 0,41.576"
     style="color:#000000;fill:none;stroke:#000000;stroke-width:0.28346458;stroke-linecap:butt;stroke-linejoin:miter;stroke-miterlimit:4;stroke-opacity:1;stroke-dasharray:none;stroke-dashoffset:0;marker:none;visibility:visible;display:inline;overflow:visible;enable-background:accumulate"
     id="path6248"
     inkscape:connector-curvature="0" /></g><g
   id="g6250"
   transform="translate(1637.5874,1511.8921)"
   style="color:#000000;fill:none;stroke:#000000;stroke-width:0.28346458;stroke-linecap:butt;stroke-linejoin:miter;stroke-miterlimit:4;stroke-opacity:1;stroke-dasharray:none;stroke-dashoffset:0;marker:none;visibility:visible;display:inline;overflow:visible;enable-background:accumulate"><path
     d="m 0,0 -11.08,0 0,-8.5 11.09,0 0.08,-0.471 0.16,-0.449 0.25,-0.41 0.32,-0.35 0.379,-0.3 0.42,-0.209 0.463,-0.131 0.469,-0.051 28.92,0 0.47,0.051 0.459,0.131 0.432,0.209 0.369,0.3 0.32,0.35 0.25,0.41 0.161,0.449 0.08,0.471 6.179,0 0,8.5 -6.17,0 0,73.699 6.17,0 0,8.51 -51.271,0 0,-8.51 11.08,0 L 0,0 z"
     style="color:#000000;fill:none;stroke:#000000;stroke-width:0.28346458;stroke-linecap:butt;stroke-linejoin:miter;stroke-miterlimit:4;stroke-opacity:1;stroke-dasharray:none;stroke-dashoffset:0;marker:none;visibility:visible;display:inline;overflow:visible;enable-background:accumulate"
     id="path6252"
     inkscape:connector-curvature="0" /></g><g
   id="g6254"
   transform="translate(1691.5796,1585.4351)"
   style="color:#000000;fill:none;stroke:#000000;stroke-width:0.28346458;stroke-linecap:butt;stroke-linejoin:miter;stroke-miterlimit:4;stroke-opacity:1;stroke-dasharray:none;stroke-dashoffset:0;marker:none;visibility:visible;display:inline;overflow:visible;enable-background:accumulate"><path
     d="m 0,0 -1.732,-0.338 -1.469,-0.985 -0.976,-1.469 -0.348,-1.731 0.348,-1.73 0.976,-1.461 1.469,-0.985 1.732,-0.338 1.729,0.338 1.468,0.985 0.978,1.461 0.348,1.73 L 4.175,-2.792 3.197,-1.323 1.729,-0.338 0,0 z"
     style="color:#000000;fill:none;stroke:#000000;stroke-width:0.28346458;stroke-linecap:butt;stroke-linejoin:miter;stroke-miterlimit:4;stroke-opacity:1;stroke-dasharray:none;stroke-dashoffset:0;marker:none;visibility:visible;display:inline;overflow:visible;enable-background:accumulate"
     id="path6256"
     inkscape:connector-curvature="0" /></g><g
   id="g6258"
   transform="translate(1618.7378,1531.2637)"
   style="color:#000000;fill:none;stroke:#000000;stroke-width:0.28346458;stroke-linecap:butt;stroke-linejoin:miter;stroke-miterlimit:4;stroke-opacity:1;stroke-dasharray:none;stroke-dashoffset:0;marker:none;visibility:visible;display:inline;overflow:visible;enable-background:accumulate"><path
     d="M 0,0 0,24.658"
     style="color:#000000;fill:none;stroke:#000000;stroke-width:0.28346458;stroke-linecap:butt;stroke-linejoin:miter;stroke-miterlimit:4;stroke-opacity:1;stroke-dasharray:none;stroke-dashoffset:0;marker:none;visibility:visible;display:inline;overflow:visible;enable-background:accumulate"
     id="path6260"
     inkscape:connector-curvature="0" /></g><g
   id="g6262"
   transform="translate(1807.3179,1569.5117)"
   style="color:#000000;fill:none;stroke:#000000;stroke-width:0.28346458;stroke-linecap:butt;stroke-linejoin:miter;stroke-miterlimit:4;stroke-opacity:1;stroke-dasharray:none;stroke-dashoffset:0;marker:none;visibility:visible;display:inline;overflow:visible;enable-background:accumulate"><path
     d="m 0,0 11.08,0 0,8.5 -11.09,0 -0.08,0.471 -0.16,0.449 -0.25,0.41 -0.32,0.35 -0.379,0.3 -0.42,0.209 -0.463,0.131 -0.469,0.051 -28.92,0 -0.47,-0.051 -0.459,-0.131 -0.432,-0.209 -0.369,-0.3 -0.32,-0.35 -0.25,-0.41 -0.161,-0.449 -0.08,-0.471 -6.179,0 0,-8.5 6.17,0 0,-73.699 -6.17,0 0,-8.51 51.271,0 0,8.51 -11.08,0 L 0,0 z"
     style="color:#000000;fill:none;stroke:#000000;stroke-width:0.28346458;stroke-linecap:butt;stroke-linejoin:miter;stroke-miterlimit:4;stroke-opacity:1;stroke-dasharray:none;stroke-dashoffset:0;marker:none;visibility:visible;display:inline;overflow:visible;enable-background:accumulate"
     id="path6264"
     inkscape:connector-curvature="0" /></g><g
   id="g6266"
   transform="translate(1753.3257,1505.0059)"
   style="color:#000000;fill:none;stroke:#000000;stroke-width:0.28346458;stroke-linecap:butt;stroke-linejoin:miter;stroke-miterlimit:4;stroke-opacity:1;stroke-dasharray:none;stroke-dashoffset:0;marker:none;visibility:visible;display:inline;overflow:visible;enable-background:accumulate"><path
     d="m 0,0 -1.729,-0.338 -1.468,-0.985 -0.977,-1.461 -0.349,-1.73 0.349,-1.731 0.977,-1.469 1.468,-0.985 1.729,-0.338 1.732,0.338 1.469,0.985 0.977,1.469 0.347,1.731 -0.347,1.73 L 3.201,-1.323 1.732,-0.338 0,0 z"
     style="color:#000000;fill:none;stroke:#000000;stroke-width:0.28346458;stroke-linecap:butt;stroke-linejoin:miter;stroke-miterlimit:4;stroke-opacity:1;stroke-dasharray:none;stroke-dashoffset:0;marker:none;visibility:visible;display:inline;overflow:visible;enable-background:accumulate"
     id="path6268"
     inkscape:connector-curvature="0" /></g><g
   id="g6270"
   transform="translate(1826.1675,1552.9756)"
   style="color:#000000;fill:none;stroke:#000000;stroke-width:0.28346458;stroke-linecap:butt;stroke-linejoin:miter;stroke-miterlimit:4;stroke-opacity:1;stroke-dasharray:none;stroke-dashoffset:0;marker:none;visibility:visible;display:inline;overflow:visible;enable-background:accumulate"><path
     d="m 0,0 0,41.577 -0.109,1.11 -0.321,1.06 -0.529,0.979 -0.699,0.861 -0.862,0.699 -0.98,0.531 -1.068,0.319 -1.102,0.111 -76.83,0 -0.9,-0.15 -0.801,-0.42 -0.629,-0.651 -0.391,-0.82 -0.121,-0.9 0.182,-0.889 0.459,-0.791 0.67,-0.609 6.25,-4.621 5.541,-5.45 4.719,-6.17 3.81,-6.769 2.82,-7.24 1.789,-7.561 0.711,-7.74 -0.38,-7.76 -1.459,-7.629 -2.51,-7.361 -3.522,-6.92 -4.449,-6.369 -5.301,-5.69 -6.039,-4.881 -6.66,-4 -7.16,-3.019 -7.51,-1.99 -7.721,-0.92 -0.528,-0.08 -0.51,-0.18 -0.461,-0.271 -0.41,-0.35 -0.33,-0.42 -0.25,-0.48 -0.149,-0.52 -0.05,-0.529 0,-6.051 0.05,-0.56 0.16,-0.531 0.27,-0.49 0.35,-0.43 0.43,-0.349 0.49,-0.26 0.529,-0.16 0.55,-0.061 105.291,0.001 1.102,0.111 1.068,0.319 0.98,0.531 0.862,0.699 0.699,0.86 0.529,0.98 0.321,1.061 0.109,1.109 0,35.795"
     style="color:#000000;fill:none;stroke:#000000;stroke-width:0.28346458;stroke-linecap:butt;stroke-linejoin:miter;stroke-miterlimit:4;stroke-opacity:1;stroke-dasharray:none;stroke-dashoffset:0;marker:none;visibility:visible;display:inline;overflow:visible;enable-background:accumulate"
     id="path6272"
     inkscape:connector-curvature="0" /></g><g
   id="g6274"
   transform="translate(1826.1675,1525.4814)"
   style="color:#000000;fill:none;stroke:#000000;stroke-width:0.28346458;stroke-linecap:butt;stroke-linejoin:miter;stroke-miterlimit:4;stroke-opacity:1;stroke-dasharray:none;stroke-dashoffset:0;marker:none;visibility:visible;display:inline;overflow:visible;enable-background:accumulate"><path
     d="M 0,0 0,24.658"
     style="color:#000000;fill:none;stroke:#000000;stroke-width:0.28346458;stroke-linecap:butt;stroke-linejoin:miter;stroke-miterlimit:4;stroke-opacity:1;stroke-dasharray:none;stroke-dashoffset:0;marker:none;visibility:visible;display:inline;overflow:visible;enable-background:accumulate"
     id="path6276"
     inkscape:connector-curvature="0" /></g><g
   id="g6278"
   transform="translate(1848.5718,1391.3223)"
   style="color:#000000;fill:none;stroke:#000000;stroke-width:0.28346458;stroke-linecap:butt;stroke-linejoin:miter;stroke-miterlimit:4;stroke-opacity:1;stroke-dasharray:none;stroke-dashoffset:0;marker:none;visibility:visible;display:inline;overflow:visible;enable-background:accumulate"><path
     d="m 0,0 -1.566,-0.309 -1.334,-0.89 -0.889,-1.334 -0.32,-1.574 0.32,-1.569 0.889,-1.332 1.334,-0.898 1.566,-0.311 1.574,0.311 1.334,0.898 0.891,1.332 0.318,1.569 -0.318,1.574 -0.891,1.334 -1.334,0.89 L 0,0 z"
     style="color:#000000;fill:none;stroke:#000000;stroke-width:0.28346458;stroke-linecap:butt;stroke-linejoin:miter;stroke-miterlimit:4;stroke-opacity:1;stroke-dasharray:none;stroke-dashoffset:0;marker:none;visibility:visible;display:inline;overflow:visible;enable-background:accumulate"
     id="path6280"
     inkscape:connector-curvature="0" /></g><g
   id="g6282"
   transform="translate(1848.5718,1451.1362)"
   style="color:#000000;fill:none;stroke:#000000;stroke-width:0.28346458;stroke-linecap:butt;stroke-linejoin:miter;stroke-miterlimit:4;stroke-opacity:1;stroke-dasharray:none;stroke-dashoffset:0;marker:none;visibility:visible;display:inline;overflow:visible;enable-background:accumulate"><path
     d="M 0,0 1.576,0.318 2.91,1.207 3.799,2.543 4.119,4.107 3.799,5.684 2.91,7.018 1.576,7.906 0,8.226 -1.564,7.906 -2.898,7.018 -3.789,5.684 -4.107,4.107 -3.789,2.543 -2.898,1.207 -1.564,0.318 0,0 z"
     style="color:#000000;fill:none;stroke:#000000;stroke-width:0.28346458;stroke-linecap:butt;stroke-linejoin:miter;stroke-miterlimit:4;stroke-opacity:1;stroke-dasharray:none;stroke-dashoffset:0;marker:none;visibility:visible;display:inline;overflow:visible;enable-background:accumulate"
     id="path6284"
     inkscape:connector-curvature="0" /></g><g
   id="g6286"
   transform="translate(1839.3628,1433.5059)"
   style="color:#000000;fill:none;stroke:#000000;stroke-width:0.28346458;stroke-linecap:butt;stroke-linejoin:miter;stroke-miterlimit:4;stroke-opacity:1;stroke-dasharray:none;stroke-dashoffset:0;marker:none;visibility:visible;display:inline;overflow:visible;enable-background:accumulate"><path
     d="M 0,0 0,-24.66"
     style="color:#000000;fill:none;stroke:#000000;stroke-width:0.28346458;stroke-linecap:butt;stroke-linejoin:miter;stroke-miterlimit:4;stroke-opacity:1;stroke-dasharray:none;stroke-dashoffset:0;marker:none;visibility:visible;display:inline;overflow:visible;enable-background:accumulate"
     id="path6288"
     inkscape:connector-curvature="0" /></g><g
   id="g6290"
   transform="translate(1839.3628,1406.0117)"
   style="color:#000000;fill:none;stroke:#000000;stroke-width:0.28346458;stroke-linecap:butt;stroke-linejoin:miter;stroke-miterlimit:4;stroke-opacity:1;stroke-dasharray:none;stroke-dashoffset:0;marker:none;visibility:visible;display:inline;overflow:visible;enable-background:accumulate"><path
     d="m 0,0 -0.002,-27.295 0.27,-2.771 0.81,-2.649 1.311,-2.461 1.759,-2.14 2.151,-1.77 2.449,-1.309 2.66,-0.8 2.772,-0.27 4.818,0 -0.002,107.589 -0.139,1.23 -0.39,1.158 -0.641,1.051 -0.84,0.891 -1.019,0.689 -1.151,0.449 -1.209,0.201 -1.798,-0.08 L 9.41,71.092 7.15,70.053 5.109,68.643 3.35,66.893 1.92,64.864 0.869,62.614 0.219,60.213 0,57.743 0,30.328"
     style="color:#000000;fill:none;stroke:#000000;stroke-width:0.28346458;stroke-linecap:butt;stroke-linejoin:miter;stroke-miterlimit:4;stroke-opacity:1;stroke-dasharray:none;stroke-dashoffset:0;marker:none;visibility:visible;display:inline;overflow:visible;enable-background:accumulate"
     id="path6292"
     inkscape:connector-curvature="0" /></g><g
   id="g6294"
   transform="translate(1882.3472,1391.2129)"
   style="color:#000000;fill:none;stroke:#000000;stroke-width:0.28346458;stroke-linecap:butt;stroke-linejoin:miter;stroke-miterlimit:4;stroke-opacity:1;stroke-dasharray:none;stroke-dashoffset:0;marker:none;visibility:visible;display:inline;overflow:visible;enable-background:accumulate"><path
     d="M 0,0 -1.566,-0.318 -2.9,-1.209 -3.799,-2.541 -4.107,-4.107 -3.799,-5.684 -2.9,-7.018 -1.566,-7.906 0,-8.227 1.576,-7.906 2.91,-7.018 3.801,-5.684 4.109,-4.107 3.801,-2.541 2.91,-1.209 1.576,-0.318 0,0 z"
     style="color:#000000;fill:none;stroke:#000000;stroke-width:0.28346458;stroke-linecap:butt;stroke-linejoin:miter;stroke-miterlimit:4;stroke-opacity:1;stroke-dasharray:none;stroke-dashoffset:0;marker:none;visibility:visible;display:inline;overflow:visible;enable-background:accumulate"
     id="path6296"
     inkscape:connector-curvature="0" /></g><g
   id="g6298"
   transform="translate(1882.3472,1451.0278)"
   style="color:#000000;fill:none;stroke:#000000;stroke-width:0.28346458;stroke-linecap:butt;stroke-linejoin:miter;stroke-miterlimit:4;stroke-opacity:1;stroke-dasharray:none;stroke-dashoffset:0;marker:none;visibility:visible;display:inline;overflow:visible;enable-background:accumulate"><path
     d="M 0,0 1.576,0.31 2.91,1.199 3.801,2.531 4.109,4.108 3.801,5.674 2.91,7.008 1.576,7.907 0,8.217 -1.566,7.907 -2.9,7.008 -3.799,5.674 -4.107,4.108 -3.799,2.531 -2.9,1.199 -1.566,0.31 0,0 z"
     style="color:#000000;fill:none;stroke:#000000;stroke-width:0.28346458;stroke-linecap:butt;stroke-linejoin:miter;stroke-miterlimit:4;stroke-opacity:1;stroke-dasharray:none;stroke-dashoffset:0;marker:none;visibility:visible;display:inline;overflow:visible;enable-background:accumulate"
     id="path6300"
     inkscape:connector-curvature="0" /></g><g
   id="g6302"
   transform="translate(1873.1362,1434.3965)"
   style="color:#000000;fill:none;stroke:#000000;stroke-width:0.28346458;stroke-linecap:butt;stroke-linejoin:miter;stroke-miterlimit:4;stroke-opacity:1;stroke-dasharray:none;stroke-dashoffset:0;marker:none;visibility:visible;display:inline;overflow:visible;enable-background:accumulate"><path
     d="M 0,0 0,-24.658"
     style="color:#000000;fill:none;stroke:#000000;stroke-width:0.28346458;stroke-linecap:butt;stroke-linejoin:miter;stroke-miterlimit:4;stroke-opacity:1;stroke-dasharray:none;stroke-dashoffset:0;marker:none;visibility:visible;display:inline;overflow:visible;enable-background:accumulate"
     id="path6304"
     inkscape:connector-curvature="0" /></g><g
   id="g6306"
   transform="translate(1873.1362,1406.9023)"
   style="color:#000000;fill:none;stroke:#000000;stroke-width:0.28346458;stroke-linecap:butt;stroke-linejoin:miter;stroke-miterlimit:4;stroke-opacity:1;stroke-dasharray:none;stroke-dashoffset:0;marker:none;visibility:visible;display:inline;overflow:visible;enable-background:accumulate"><path
     d="m 0,0 0,-28.307 0.221,-2.468 0.638,-2.401 1.061,-2.25 1.43,-2.031 1.761,-1.75 2.041,-1.408 2.26,-1.041 2.401,-0.619 1.796,-0.08 1.209,0.199 1.151,0.449 1.019,0.691 0.84,0.889 0.641,1.051 0.39,1.16 0.139,1.23 0,107.589 -4.826,0 -2.76,-0.27 -2.66,-0.8 L 6.301,68.522 4.15,66.753 2.391,64.613 1.08,62.154 0.27,59.503 0,56.734 0,30.33"
     style="color:#000000;fill:none;stroke:#000000;stroke-width:0.28346458;stroke-linecap:butt;stroke-linejoin:miter;stroke-miterlimit:4;stroke-opacity:1;stroke-dasharray:none;stroke-dashoffset:0;marker:none;visibility:visible;display:inline;overflow:visible;enable-background:accumulate"
     id="path6308"
     inkscape:connector-curvature="0" /></g></g></svg>